STARTFONT 2.1
COMMENT  
COMMENT  WARNING:  This bdf file was generated from an X server using
COMMENT  xbdfdump.  The resulting font is subject to the same copyright,
COMMENT  license, and trademark restrictions as the original font.  The
COMMENT  author and distributors of xbdfdump disclaim all liability for
COMMENT  misuse of the program or its output.
COMMENT  
FONT -phaisarn-angsana-medium-i-normal--24-240-75-75-p-75-tis620-0
SIZE 24 75 75
FONTBOUNDINGBOX 55 65 -17 -20
STARTPROPERTIES 26
FOUNDRY "Phaisarn"
FAMILY_NAME "Angsana"
WEIGHT_NAME "medium"
SLANT "i"
SETWIDTH_NAME "normal"
ADD_STYLE_NAME ""
PIXEL_SIZE 24
POINT_SIZE 240
RESOLUTION_X 75
RESOLUTION_Y 75
SPACING "p"
AVERAGE_WIDTH 75
CHARSET_REGISTRY "tis620"
CHARSET_ENCODING "0"
COPYRIGHT "Angsana by Pt-TITech 1997"
RAW_PIXELSIZE 1000
RAW_POINTSIZE "N"
RAW_ASCENT "CIRCUMFLEX_ACCENT"
RAW_DESCENT "RAW_FIGURE_WIDTH"
RAW_AVERAGE_WIDTH 2994
FACE_NAME "Angsana Inclined"
WEIGHT 10
X_HEIGHT 14
QUAD_WIDTH 20
FONT_ASCENT 50
FONT_DESCENT 10
ENDPROPERTIES
CHARS 199
STARTCHAR space
ENCODING 32
SWIDTH 320 0
DWIDTH 8 0
BBX 0 0 0 0
BITMAP
ENDCHAR
STARTCHAR exclam
ENCODING 33
SWIDTH 440 0
DWIDTH 11 0
BBX 8 23 2 -1
BITMAP
03
07
07
07
0e
0e
0e
0c
0c
08
18
18
10
10
10
20
20
00
00
00
e0
e0
e0
ENDCHAR
STARTCHAR quotedbl
ENCODING 34
SWIDTH 520 0
DWIDTH 13 0
BBX 9 9 5 13
BITMAP
6180
7380
e380
e380
c300
c300
8200
8600
8400
ENDCHAR
STARTCHAR numbersign
ENCODING 35
SWIDTH 640 0
DWIDTH 16 0
BBX 14 22 3 0
BITMAP
0608
0408
0418
0418
0c10
0810
0810
fffc
1820
1820
1020
1020
1060
1060
fffc
2040
2040
20c0
2080
6080
4080
4080
ENDCHAR
STARTCHAR dollar
ENCODING 36
SWIDTH 640 0
DWIDTH 16 0
BBX 13 24 2 -2
BITMAP
0020
03e0
0678
0c58
1848
1888
1888
1c80
0f00
0f00
0780
03c0
03e0
02e0
0270
0430
4430
4430
c420
c860
e8c0
7f00
0800
1000
ENDCHAR
STARTCHAR percent
ENCODING 37
SWIDTH 1080 0
DWIDTH 27 0
BBX 24 23 2 -1
BITMAP
070003
198006
30c00c
70c018
60c030
e1c060
e1c0c0
c18180
c38300
430600
660c00
18181c
003066
0060c2
00c1c3
018183
030387
060387
0c0306
18030e
30030c
600198
c000e0
ENDCHAR
STARTCHAR ampersand
ENCODING 38
SWIDTH 1000 0
DWIDTH 25 0
BBX 21 22 2 0
BITMAP
000e00
003300
006180
006180
00e380
00e300
00e600
00ec00
00f000
01e000
06f000
1c73f8
3870c0
707080
603980
e03900
e01a00
e01c00
f00c00
701e00
3fe798
1f83e0
ENDCHAR
STARTCHAR apostrophe
ENCODING 39
SWIDTH 280 0
DWIDTH 7 0
BBX 3 9 5 13
BITMAP
60
60
e0
e0
c0
c0
80
80
80
ENDCHAR
STARTCHAR parenleft
ENCODING 40
SWIDTH 440 0
DWIDTH 11 0
BBX 12 29 2 -7
BITMAP
0010
0020
0040
0180
0300
0600
0e00
0c00
1c00
3800
3800
7000
7000
6000
e000
e000
e000
c000
c000
c000
c000
c000
4000
4000
4000
2000
2000
1000
1000
ENDCHAR
STARTCHAR parenright
ENCODING 41
SWIDTH 440 0
DWIDTH 11 0
BBX 11 29 -3 -7
BITMAP
0100
0080
0080
0080
0040
0040
0040
0060
0060
0060
0060
0060
00e0
00e0
00e0
00c0
01c0
01c0
0180
0380
0300
0600
0600
0c00
1800
1000
2000
4000
8000
ENDCHAR
STARTCHAR asterisk
ENCODING 42
SWIDTH 640 0
DWIDTH 16 0
BBX 11 13 5 9
BITMAP
0e00
0e00
c460
e4e0
75c0
1f00
1f00
75c0
e4e0
c460
0e00
0e00
0400
ENDCHAR
STARTCHAR plus
ENCODING 43
SWIDTH 880 0
DWIDTH 22 0
BBX 16 17 3 2
BITMAP
0080
0080
0080
0080
0080
0080
0080
0080
ffff
0080
0080
0080
0080
0080
0080
0080
0080
ENDCHAR
STARTCHAR comma
ENCODING 44
SWIDTH 320 0
DWIDTH 8 0
BBX 4 7 0 -4
BITMAP
60
70
70
30
20
40
80
ENDCHAR
STARTCHAR minus
ENCODING 45
SWIDTH 440 0
DWIDTH 11 0
BBX 8 2 1 6
BITMAP
ff
ff
ENDCHAR
STARTCHAR period
ENCODING 46
SWIDTH 320 0
DWIDTH 8 0
BBX 3 3 1 0
BITMAP
e0
e0
e0
ENDCHAR
STARTCHAR slash
ENCODING 47
SWIDTH 360 0
DWIDTH 9 0
BBX 12 22 -1 0
BITMAP
0010
0030
0020
0060
0040
00c0
0080
0180
0100
0200
0200
0400
0400
0800
0800
1000
3000
2000
6000
4000
c000
8000
ENDCHAR
STARTCHAR 0
ENCODING 48
SWIDTH 640 0
DWIDTH 16 0
BBX 14 22 2 0
BITMAP
01e0
0318
0e18
0c0c
180c
380c
380c
700c
701c
601c
e01c
e018
e038
e038
c038
c070
c070
c060
40c0
6180
2300
1c00
ENDCHAR
STARTCHAR 1
ENCODING 49
SWIDTH 640 0
DWIDTH 16 0
BBX 11 22 2 0
BITMAP
0060
07e0
00e0
00c0
00c0
01c0
0180
0180
0380
0380
0300
0700
0700
0600
0600
0e00
0c00
0c00
1c00
1c00
3c00
ff00
ENDCHAR
STARTCHAR 2
ENCODING 50
SWIDTH 640 0
DWIDTH 16 0
BBX 14 22 1 0
BITMAP
01e0
03f0
07f8
0c7c
083c
001c
001c
0018
0018
0030
0020
0040
0080
0100
0200
0400
0800
1010
2020
7fe0
ffc0
ffc0
ENDCHAR
STARTCHAR 3
ENCODING 51
SWIDTH 640 0
DWIDTH 16 0
BBX 14 22 1 0
BITMAP
01e0
03f8
067c
041c
001c
001c
0038
0070
00c0
0780
0fe0
01e0
00f0
0070
0070
0070
0060
0060
00e0
60c0
ff00
3c00
ENDCHAR
STARTCHAR 4
ENCODING 52
SWIDTH 640 0
DWIDTH 16 0
BBX 14 21 1 0
BITMAP
0004
000c
001c
0038
0058
00f8
01b8
0330
0630
0c70
1860
3060
60e0
c0c0
fff8
fff0
01c0
0180
0180
0380
0300
ENDCHAR
STARTCHAR 5
ENCODING 53
SWIDTH 640 0
DWIDTH 16 0
BBX 13 21 2 0
BITMAP
03f8
03f8
07f8
0400
0400
0800
0f00
1fc0
03c0
00e0
00e0
0060
0060
0060
0040
0040
00c0
0080
c100
fe00
7800
ENDCHAR
STARTCHAR 6
ENCODING 54
SWIDTH 640 0
DWIDTH 16 0
BBX 15 22 2 0
BITMAP
0006
0038
00e0
03c0
0700
0e00
1e00
1c00
3fc0
78f0
7070
7038
e038
e038
e038
c038
c070
c070
40e0
60c0
3380
1e00
ENDCHAR
STARTCHAR 7
ENCODING 55
SWIDTH 640 0
DWIDTH 16 0
BBX 12 21 4 0
BITMAP
3ff0
7ff0
7fe0
c060
8040
00c0
0080
0180
0100
0200
0600
0400
0c00
0800
1800
3000
2000
6000
4000
c000
8000
ENDCHAR
STARTCHAR 8
ENCODING 56
SWIDTH 640 0
DWIDTH 16 0
BBX 15 22 1 0
BITMAP
01f0
031c
060c
0c06
0c06
0c06
0e0c
070c
0798
03e0
07e0
18f0
3070
6038
6038
c018
c018
c018
c010
6030
30c0
1f00
ENDCHAR
STARTCHAR 9
ENCODING 57
SWIDTH 640 0
DWIDTH 16 0
BBX 15 22 1 0
BITMAP
00f0
0398
060c
0e04
1c06
1c06
1806
3806
380e
380e
380c
381c
1c1c
1e38
07f8
0070
00e0
01c0
0380
0700
1c00
e000
ENDCHAR
STARTCHAR colon
ENCODING 58
SWIDTH 440 0
DWIDTH 11 0
BBX 6 14 2 0
BITMAP
1c
1c
1c
00
00
00
00
00
00
00
00
e0
e0
e0
ENDCHAR
STARTCHAR semicolon
ENCODING 59
SWIDTH 440 0
DWIDTH 11 0
BBX 7 18 1 -4
BITMAP
0e
0e
0e
00
00
00
00
00
00
00
00
20
70
70
30
20
40
80
ENDCHAR
STARTCHAR less
ENCODING 60
SWIDTH 880 0
DWIDTH 22 0
BBX 16 15 3 3
BITMAP
0001
0007
003c
00e0
0380
1e00
7000
c000
7000
1e00
0380
00e0
001c
0007
0001
ENDCHAR
STARTCHAR equal
ENCODING 61
SWIDTH 880 0
DWIDTH 22 0
BBX 16 7 4 7
BITMAP
ffff
0000
0000
0000
0000
0000
ffff
ENDCHAR
STARTCHAR greater
ENCODING 62
SWIDTH 880 0
DWIDTH 22 0
BBX 16 15 3 3
BITMAP
8000
e000
3800
0700
01c0
0078
000e
0003
000e
0038
01c0
0700
3c00
e000
8000
ENDCHAR
STARTCHAR question
ENCODING 63
SWIDTH 640 0
DWIDTH 16 0
BBX 12 22 3 0
BITMAP
0f00
31c0
60e0
7070
7070
0070
00e0
00e0
01c0
0300
0600
0c00
1800
1000
2000
2000
2000
0000
0000
e000
e000
e000
ENDCHAR
STARTCHAR at
ENCODING 64
SWIDTH 1160 0
DWIDTH 29 0
BBX 26 29 2 -7
BITMAP
000fc000
00703000
01800800
06000400
0c000200
18000100
30000100
20073080
600cb080
4018e080
4030e080
c060e080
80e0e080
80c0c080
81c0c100
81c1c100
8381c100
83838200
83838200
83c58400
41f99840
40e1e0c0
60000080
20000100
10000200
0c000400
06000800
01c07000
003f8000
ENDCHAR
STARTCHAR A
ENCODING 65
SWIDTH 800 0
DWIDTH 20 0
BBX 18 22 -1 0
BITMAP
000040
000080
000180
000380
000380
000780
000f80
000b80
001380
002380
006380
004380
008300
018700
03ff00
020700
040700
080700
180700
300700
700f80
fc3fc0
ENDCHAR
STARTCHAR B
ENCODING 66
SWIDTH 800 0
DWIDTH 20 0
BBX 19 21 0 0
BITMAP
07fc00
01e380
01c1c0
01c0e0
01c0e0
0180e0
0381c0
0381c0
030700
07fc00
070e00
060700
060380
0e0380
0e0380
0c0380
1c0700
1c0700
181e00
3ffc00
ffe000
ENDCHAR
STARTCHAR C
ENCODING 67
SWIDTH 840 0
DWIDTH 21 0
BBX 20 22 2 0
BITMAP
003f10
01e0f0
038070
0e0030
1c0020
3c0020
380020
700000
700000
700000
e00000
e00000
e00000
e00000
e00000
600000
700040
700080
380300
1e0c00
0ff800
03e000
ENDCHAR
STARTCHAR D
ENCODING 68
SWIDTH 920 0
DWIDTH 23 0
BBX 24 21 -1 0
BITMAP
03ffc0
00e078
00e01c
00e00e
00c00e
01c006
01c007
01c007
038007
038007
038007
070007
07000e
07000e
0e000e
0e001c
0e0038
1c0070
1c00e0
1c0780
fff800
ENDCHAR
STARTCHAR E
ENCODING 69
SWIDTH 800 0
DWIDTH 20 0
BBX 20 21 0 0
BITMAP
07fff0
01c070
01c030
01c010
01c010
018000
038100
038200
030600
07fc00
070c00
060400
060400
0e0400
0e0000
0c0040
1c0080
1c0080
1c0180
3c0f00
ffff00
ENDCHAR
STARTCHAR F
ENCODING 70
SWIDTH 800 0
DWIDTH 20 0
BBX 21 21 0 0
BITMAP
07fff8
01c038
01c018
01c010
01c010
038000
038100
038100
030600
07fe00
070600
060600
0e0400
0e0400
0e0000
0c0000
1c0000
1c0000
3c0000
3c0000
ff0000
ENDCHAR
STARTCHAR G
ENCODING 71
SWIDTH 920 0
DWIDTH 23 0
BBX 21 22 2 0
BITMAP
003f88
01e0f8
038038
070010
0e0010
1c0010
380010
380000
700000
700000
f00000
e00ff8
e001e0
e001c0
e001c0
e001c0
600380
700380
700380
380700
1e0f00
03f800
ENDCHAR
STARTCHAR H
ENCODING 72
SWIDTH 920 0
DWIDTH 23 0
BBX 26 21 0 0
BITMAP
07fc3fc0
01f00f00
01e00e00
01c00e00
01c00c00
01801c00
03801c00
03801800
03003800
07fff800
07003800
07007000
06007000
0e007000
0e006000
0c00e000
1c00e000
1c00e000
1c01c000
3c03e000
ff0ff800
ENDCHAR
STARTCHAR I
ENCODING 73
SWIDTH 440 0
DWIDTH 11 0
BBX 13 21 -1 0
BITMAP
07f8
01e0
00e0
01c0
01c0
01c0
0180
0380
0380
0300
0700
0700
0600
0e00
0e00
0e00
0c00
1c00
1c00
3c00
ff00
ENDCHAR
STARTCHAR J
ENCODING 74
SWIDTH 560 0
DWIDTH 14 0
BBX 18 21 -1 0
BITMAP
003fc0
000f00
000700
000e00
000e00
000c00
000c00
001c00
001c00
001800
003800
003800
003000
007000
007000
006000
60e000
f0c000
e1c000
638000
3e0000
ENDCHAR
STARTCHAR K
ENCODING 75
SWIDTH 840 0
DWIDTH 21 0
BBX 23 21 0 0
BITMAP
07f87e
01e038
01c070
01c0c0
01c180
018200
038c00
039800
032000
07e000
07e000
077000
063800
0e3800
0e1c00
0c0e00
1c0e00
1c0700
1c0780
3c07c0
ff1ff0
ENDCHAR
STARTCHAR L
ENCODING 76
SWIDTH 720 0
DWIDTH 18 0
BBX 18 21 -1 0
BITMAP
07fc00
01f000
00e000
01c000
01c000
01c000
018000
038000
038000
038000
070000
070000
070000
060000
0e0000
0e0040
0c0080
1c0180
1c0100
1c0700
ffff00
ENDCHAR
STARTCHAR M
ENCODING 77
SWIDTH 1080 0
DWIDTH 27 0
BBX 30 21 -1 0
BITMAP
07e0007c
01e000f0
00e001e0
00e001e0
01e002c0
017007c0
01700dc0
037009c0
02701380
02703380
06706380
04704700
0430c700
04318700
083b0600
083a0e00
083e0e00
183c0c00
10381c00
38303e00
fe10ff80
ENDCHAR
STARTCHAR N
ENCODING 78
SWIDTH 840 0
DWIDTH 21 0
BBX 24 21 0 0
BITMAP
0fc03f
03c00c
01c008
01e008
01e018
017010
027010
023010
023820
063820
041c20
041c60
040c40
080e40
0806c0
080780
180780
100380
100300
300100
fc0100
ENDCHAR
STARTCHAR O
ENCODING 79
SWIDTH 920 0
DWIDTH 23 0
BBX 21 22 2 0
BITMAP
001f00
00e0e0
038060
070070
0e0030
1c0038
1c0038
380038
780038
700038
700078
f00070
e00070
e000f0
e000e0
e001c0
e001c0
600380
700700
300e00
3c3800
0fe000
ENDCHAR
STARTCHAR P
ENCODING 80
SWIDTH 800 0
DWIDTH 20 0
BBX 20 21 0 0
BITMAP
07ff80
01e1e0
01c0e0
01c070
01c070
018070
0380f0
0380e0
0301c0
070780
07fc00
070000
060000
0e0000
0e0000
0c0000
1c0000
1c0000
1c0000
3c0000
ff0000
ENDCHAR
STARTCHAR Q
ENCODING 81
SWIDTH 920 0
DWIDTH 23 0
BBX 21 29 2 -7
BITMAP
001f00
00e1c0
018060
070070
0e0030
1c0038
1c0038
380038
380038
700038
700078
f00070
e00070
e000f0
e000e0
e001e0
e001c0
e00380
700700
700e00
381c00
1ef000
030000
040000
180020
300020
7fc0c0
ffff00
01fc00
ENDCHAR
STARTCHAR R
ENCODING 82
SWIDTH 800 0
DWIDTH 20 0
BBX 18 21 0 0
BITMAP
07fe00
01c780
01c380
0181c0
0181c0
0381c0
0381c0
030380
070780
070e00
07f800
063800
0e3800
0e1800
0c1c00
1c1c00
1c0c00
1c0e00
380e00
3c0700
ff07c0
ENDCHAR
STARTCHAR S
ENCODING 83
SWIDTH 640 0
DWIDTH 16 0
BBX 17 22 0 0
BITMAP
01f880
038f80
070380
0e0300
0e0100
0e0100
0e0100
0f0100
070000
078000
01e000
00f000
007800
003800
203c00
201c00
401c00
401c00
603800
603800
787000
cfc000
ENDCHAR
STARTCHAR T
ENCODING 84
SWIDTH 720 0
DWIDTH 18 0
BBX 18 21 3 0
BITMAP
3fffc0
30e0c0
60e0c0
40c080
41c080
41c080
01c000
038000
038000
038000
030000
070000
070000
070000
0e0000
0e0000
0e0000
1c0000
1c0000
3e0000
ff8000
ENDCHAR
STARTCHAR U
ENCODING 85
SWIDTH 920 0
DWIDTH 23 0
BBX 23 21 3 0
BITMAP
7fc0fe
1f0038
0e0010
1c0030
1c0020
1c0020
380020
380060
380040
700040
7000c0
700080
e00080
e00100
e00100
e00300
e00200
700400
3c1800
1ff000
07c000
ENDCHAR
STARTCHAR V
ENCODING 86
SWIDTH 800 0
DWIDTH 20 0
BBX 18 21 4 0
BITMAP
ff0fc0
3c0780
380200
380400
380c00
380800
381000
302000
306000
304000
708000
710000
720000
760000
740000
780000
700000
700000
600000
400000
800000
ENDCHAR
STARTCHAR W
ENCODING 87
SWIDTH 1080 0
DWIDTH 27 0
BBX 25 21 4 0
BITMAP
fe7f9f80
781e0f00
381c0600
381c0c00
303c0800
303c1000
305c3000
70d82000
70984000
7118c000
73388000
72390000
743b0000
6c3a0000
683c0000
703c0000
f0380000
e0300000
c0300000
c0600000
80400000
ENDCHAR
STARTCHAR X
ENCODING 88
SWIDTH 800 0
DWIDTH 20 0
BBX 25 21 -2 0
BITMAP
03fc3f80
00f00f00
00700c00
00701800
00303000
00384000
00388000
00190000
001e0000
001c0000
001c0000
001c0000
002e0000
004e0000
00860000
01070000
06070000
0c070000
18038000
3807c000
fe1ff000
ENDCHAR
STARTCHAR Y
ENCODING 89
SWIDTH 720 0
DWIDTH 18 0
BBX 18 21 3 0
BITMAP
ff0fc0
3c0380
1c0600
1c0400
0c0c00
0e1800
0e1000
062000
074000
07c000
038000
070000
070000
070000
0e0000
0e0000
0e0000
1c0000
1c0000
3c0000
ff8000
ENDCHAR
STARTCHAR Z
ENCODING 90
SWIDTH 720 0
DWIDTH 18 0
BBX 19 21 0 0
BITMAP
0fffe0
0c01e0
0803c0
100780
100700
000e00
001e00
003c00
007800
007000
00e000
01c000
03c000
078000
070000
0e0000
1c0080
3c0100
780300
f00e00
fffe00
ENDCHAR
STARTCHAR bracketleft
ENCODING 91
SWIDTH 480 0
DWIDTH 12 0
BBX 14 28 1 -6
BITMAP
00fc
01c0
0180
0180
0380
0300
0300
0300
0700
0600
0600
0e00
0c00
0c00
0c00
1c00
1800
1800
3800
3000
3000
7000
6000
6000
6000
e000
c000
fc00
ENDCHAR
STARTCHAR backslash
ENCODING 92
SWIDTH 360 0
DWIDTH 9 0
BBX 3 22 4 0
BITMAP
80
80
80
80
80
80
80
c0
40
40
40
40
40
40
40
20
20
20
20
20
20
20
ENDCHAR
STARTCHAR bracketright
ENCODING 93
SWIDTH 480 0
DWIDTH 12 0
BBX 14 28 -3 -6
BITMAP
00fc
000c
001c
0018
0018
0018
0038
0030
0030
0070
0060
0060
00e0
00c0
00c0
00c0
01c0
0180
0180
0380
0300
0300
0300
0700
0600
0600
0e00
fc00
ENDCHAR
STARTCHAR asciicircum
ENCODING 94
SWIDTH 520 0
DWIDTH 13 0
BBX 13 12 1 10
BITMAP
0200
0700
0500
0d80
0880
18c0
1040
3060
2020
4010
c018
8008
ENDCHAR
STARTCHAR underscore
ENCODING 95
SWIDTH 640 0
DWIDTH 16 0
BBX 16 1 0 -7
BITMAP
ffff
ENDCHAR
STARTCHAR grave
ENCODING 96
SWIDTH 440 0
DWIDTH 11 0
BBX 5 5 6 17
BITMAP
e0
60
30
10
08
ENDCHAR
STARTCHAR a
ENCODING 97
SWIDTH 640 0
DWIDTH 16 0
BBX 14 14 1 0
BITMAP
01dc
0738
0c38
1838
1830
3030
7030
6070
e060
e0e0
e164
e2e8
7cf0
38e0
ENDCHAR
STARTCHAR b
ENCODING 98
SWIDTH 640 0
DWIDTH 16 0
BBX 14 22 1 0
BITMAP
0700
3e00
0600
0e00
0e00
0c00
0c00
1c00
1ce0
19f8
3e38
381c
381c
301c
701c
6018
6038
e030
c060
c0c0
e300
3e00
ENDCHAR
STARTCHAR c
ENCODING 99
SWIDTH 560 0
DWIDTH 14 0
BBX 13 14 1 0
BITMAP
01e0
0710
0c38
1830
3000
7000
6000
e000
e000
e000
f020
78c0
3f80
1e00
ENDCHAR
STARTCHAR d
ENCODING 100
SWIDTH 640 0
DWIDTH 16 0
BBX 16 22 1 0
BITMAP
0003
001f
0007
0007
0006
0006
000e
000c
01ec
032c
0c1c
1818
3818
3038
7030
6030
e070
e0f0
e164
e268
7c70
3860
ENDCHAR
STARTCHAR e
ENCODING 101
SWIDTH 560 0
DWIDTH 14 0
BBX 13 14 1 0
BITMAP
01e0
0618
0c18
1838
3030
7060
6780
f800
e000
e000
f010
7860
3f80
1e00
ENDCHAR
STARTCHAR f
ENCODING 102
SWIDTH 360 0
DWIDTH 9 0
BBX 20 29 -5 -7
BITMAP
0001c0
000270
000470
000800
001800
003800
003000
007000
01fc00
006000
006000
006000
00e000
00c000
00c000
00c000
01c000
018000
018000
018000
038000
030000
030000
020000
060000
040000
c80000
900000
600000
ENDCHAR
STARTCHAR g
ENCODING 103
SWIDTH 640 0
DWIDTH 16 0
BBX 18 21 -1 -7
BITMAP
00f000
031fc0
060fc0
0e0e00
1c0e00
1c0e00
1c1c00
1c1800
0e3000
03c000
060000
0c0000
0e0000
0fe000
13f800
603c00
c00c00
c00c00
e00800
783000
1fc000
ENDCHAR
STARTCHAR h
ENCODING 104
SWIDTH 640 0
DWIDTH 16 0
BBX 14 22 1 0
BITMAP
0700
1e00
0600
0600
0c00
0c00
0c00
1c00
1870
18f8
1938
3a38
3430
3870
7870
7060
70e0
60e0
e0c4
c0c8
c1f0
c0c0
ENDCHAR
STARTCHAR i
ENCODING 105
SWIDTH 360 0
DWIDTH 9 0
BBX 7 20 2 0
BITMAP
0e
0e
0e
00
00
00
7c
b8
18
38
30
30
70
70
60
e0
e4
c8
f0
c0
ENDCHAR
STARTCHAR j
ENCODING 106
SWIDTH 360 0
DWIDTH 9 0
BBX 14 27 -5 -7
BITMAP
001c
001c
001c
0000
0000
0000
0038
01f0
0030
0070
0060
0060
0060
00e0
00c0
00c0
01c0
0180
0180
0380
0300
0300
0700
0600
c400
d800
7000
ENDCHAR
STARTCHAR k
ENCODING 107
SWIDTH 560 0
DWIDTH 14 0
BBX 14 22 1 0
BITMAP
0f00
1700
0600
0600
0e00
0e00
0c00
0c00
1cfc
1830
1840
3880
3900
3300
3f00
7300
6300
6380
e188
e190
c1e0
c0c0
ENDCHAR
STARTCHAR l
ENCODING 108
SWIDTH 360 0
DWIDTH 9 0
BBX 7 22 2 0
BITMAP
06
3e
0e
0c
0c
0c
1c
18
18
18
38
30
30
70
60
60
60
e0
c8
c8
f0
c0
ENDCHAR
STARTCHAR m
ENCODING 109
SWIDTH 920 0
DWIDTH 23 0
BBX 21 14 1 0
BITMAP
1c70e0
7cf9f0
193a70
1a3a70
3c3460
3478e0
3878e0
7070c0
70e0c0
60e0c0
60c188
e0c190
c1c1e0
c18180
ENDCHAR
STARTCHAR n
ENCODING 110
SWIDTH 640 0
DWIDTH 16 0
BBX 14 14 1 0
BITMAP
1c38
7cf8
1918
1a38
3a30
3430
3830
7070
7060
6060
60e4
e0c8
c0f0
c0e0
ENDCHAR
STARTCHAR o
ENCODING 111
SWIDTH 640 0
DWIDTH 16 0
BBX 14 14 1 0
BITMAP
01e0
0630
0c18
181c
381c
701c
701c
e038
e038
e070
e060
60c0
3180
1e00
ENDCHAR
STARTCHAR p
ENCODING 112
SWIDTH 640 0
DWIDTH 16 0
BBX 18 21 -3 -7
BITMAP
00c700
079f80
01a380
01c1c0
0381c0
0381c0
030180
070380
060380
060700
060600
0c0c00
0e1800
0de000
1c0000
180000
180000
380000
380000
380000
fe0000
ENDCHAR
STARTCHAR q
ENCODING 113
SWIDTH 640 0
DWIDTH 16 0
BBX 14 21 1 -7
BITMAP
01c4
032c
0c1c
1c18
1818
3018
7038
7030
e070
e070
e0f0
e160
7260
7ce0
30c0
00c0
00c0
01c0
0180
0380
0fe0
ENDCHAR
STARTCHAR r
ENCODING 114
SWIDTH 480 0
DWIDTH 12 0
BBX 11 14 1 0
BITMAP
1c60
78e0
1960
1a60
3200
3400
3800
7800
7000
6000
6000
e000
c000
c000
ENDCHAR
STARTCHAR s
ENCODING 115
SWIDTH 480 0
DWIDTH 12 0
BBX 11 14 0 0
BITMAP
0720
0ce0
1860
1860
1c40
1e00
0e00
0700
0380
4180
8180
c180
e300
9e00
ENDCHAR
STARTCHAR t
ENCODING 116
SWIDTH 360 0
DWIDTH 9 0
BBX 8 18 1 0
BITMAP
02
02
06
1c
7f
1c
1c
18
38
38
30
70
70
70
e2
e4
f8
70
ENDCHAR
STARTCHAR u
ENCODING 117
SWIDTH 640 0
DWIDTH 16 0
BBX 13 14 1 0
BITMAP
3818
7818
b838
b830
3030
3070
7070
60e0
6160
61e0
e2c8
c4c8
f8f0
e0c0
ENDCHAR
STARTCHAR v
ENCODING 118
SWIDTH 560 0
DWIDTH 14 0
BBX 13 14 1 0
BITMAP
3830
f838
3818
1818
1810
1c10
1c20
1c40
0c80
0c80
0d00
0e00
0c00
0800
ENDCHAR
STARTCHAR w
ENCODING 119
SWIDTH 840 0
DWIDTH 21 0
BBX 21 14 0 0
BITMAP
180818
f81838
181818
183808
1c3810
1c5810
0c9c20
0c9c40
0d1c40
0e0c80
0e0d00
0c0e00
0c0c00
080800
ENDCHAR
STARTCHAR x
ENCODING 120
SWIDTH 560 0
DWIDTH 14 0
BBX 14 14 -1 0
BITMAP
0c0c
3e1c
063c
0740
0380
0380
0380
0380
0580
0580
09c8
d0d0
e0f0
c0c0
ENDCHAR
STARTCHAR y
ENCODING 121
SWIDTH 560 0
DWIDTH 14 0
BBX 16 21 -2 -7
BITMAP
0606
1f07
0703
0301
0302
0302
0304
0384
0388
0390
01a0
01a0
01c0
0180
0100
0200
0400
0c00
d800
f000
c000
ENDCHAR
STARTCHAR z
ENCODING 122
SWIDTH 480 0
DWIDTH 12 0
BBX 13 14 0 0
BITMAP
1ff8
1ff0
3020
2040
0080
0180
0300
0600
0c00
1800
1020
2020
7fc0
ffc0
ENDCHAR
STARTCHAR braceleft
ENCODING 123
SWIDTH 520 0
DWIDTH 13 0
BBX 13 29 2 -7
BITMAP
0018
0060
0080
0180
0300
0300
0700
0700
0700
0600
0600
0400
0800
3000
c000
6000
1000
1800
1800
3800
7800
7000
f000
e000
c000
c000
4000
6000
1800
ENDCHAR
STARTCHAR bar
ENCODING 124
SWIDTH 360 0
DWIDTH 9 0
BBX 1 29 4 -7
BITMAP
80
80
80
80
80
80
80
80
80
80
80
80
80
80
80
80
80
80
80
80
80
80
80
80
80
80
80
80
80
ENDCHAR
STARTCHAR braceright
ENCODING 125
SWIDTH 520 0
DWIDTH 13 0
BBX 12 29 -2 -7
BITMAP
00c0
0020
0020
0030
0030
0030
0070
0060
00e0
00c0
00c0
00c0
0040
0020
0030
0040
0080
0100
0300
0300
0700
0700
0700
0600
0600
0c00
0800
3000
c000
ENDCHAR
STARTCHAR asciitilde
ENCODING 126
SWIDTH 680 0
DWIDTH 17 0
BBX 17 5 1 6
BITMAP
380080
7e0100
83c100
807e00
801c00
ENDCHAR
STARTCHAR exclamdown
ENCODING 161
SWIDTH 760 0
DWIDTH 19 0
BBX 15 20 2 0
BITMAP
01f0
07f8
1c1c
300e
400e
7f06
ff06
300e
300e
700e
700e
700c
700c
601c
601c
e01c
e01c
e018
e018
c030
ENDCHAR
STARTCHAR cent
ENCODING 162
SWIDTH 760 0
DWIDTH 19 0
BBX 17 20 2 0
BITMAP
000080
0f0100
3f8300
61c700
81c700
bdc700
c5c600
858600
898600
738e00
038e00
038e00
030c00
030c00
030c00
071c00
031c00
031800
033800
01e000
ENDCHAR
STARTCHAR sterling
ENCODING 163
SWIDTH 880 0
DWIDTH 22 0
BBX 19 20 2 0
BITMAP
186020
3ce060
7df0e0
6770e0
c270e0
8070e0
8060c0
9ce1c0
8ee1c0
c6e1c0
7ce1c0
38c180
00c180
01c380
01c380
01c380
01c300
01c700
00c600
003800
ENDCHAR
STARTCHAR currency
ENCODING 164
SWIDTH 760 0
DWIDTH 19 0
BBX 16 20 2 0
BITMAP
01f8
07fc
1c1e
300f
6007
4307
8f87
9c87
9847
f88e
7f8e
700e
700e
700e
700c
701c
601c
e01c
e01c
e018
ENDCHAR
STARTCHAR yen
ENCODING 165
SWIDTH 800 0
DWIDTH 20 0
BBX 16 20 2 0
BITMAP
0318
0f9e
19be
30ef
6047
4007
c787
cc47
d847
f8c7
7f87
3006
700e
700e
700e
700e
600c
e01c
e01c
e01c
ENDCHAR
STARTCHAR brokenbar
ENCODING 166
SWIDTH 960 0
DWIDTH 24 0
BBX 21 20 2 0
BITMAP
18e008
3df038
6f7038
467038
c27038
807070
80e070
8ce070
84e070
44e070
7ce060
39e0e0
01c0e0
03e0e0
0ff8e0
19cee0
1387c0
1383c0
1f03c0
0e01c0
ENDCHAR
STARTCHAR section
ENCODING 167
SWIDTH 600 0
DWIDTH 15 0
BBX 12 20 2 0
BITMAP
00c0
03f0
0630
0430
0670
03f0
0070
0060
80e0
80e0
c0e0
60e0
70e0
39c0
1dc0
1fc0
0fc0
07c0
07c0
0380
ENDCHAR
STARTCHAR diaeresis
ENCODING 168
SWIDTH 680 0
DWIDTH 17 0
BBX 12 20 3 0
BITMAP
0f80
1fc0
61e0
c0f0
8070
3870
7c70
8c70
8c70
9c70
7c60
1c60
18e0
18e0
38e0
38e0
38c0
39c0
1980
0e00
ENDCHAR
STARTCHAR copyright
ENCODING 169
SWIDTH 840 0
DWIDTH 21 0
BBX 15 20 3 0
BITMAP
07e0
1ff0
7078
c03c
801c
300e
780e
980c
9c0c
781c
181c
181c
381c
3818
39f8
3678
38cc
3884
7088
7070
ENDCHAR
STARTCHAR ordfeminine
ENCODING 170
SWIDTH 800 0
DWIDTH 20 0
BBX 18 20 3 0
BITMAP
0f01c0
3f83c0
63c380
41c700
81ce00
99dc00
99f000
89f800
5b9c00
739c00
039c00
039c00
039c00
071c00
071800
071800
073000
073000
066000
3fc000
ENDCHAR
STARTCHAR guillemotleft
ENCODING 171
SWIDTH 880 0
DWIDTH 22 0
BBX 20 20 2 0
BITMAP
084030
18e070
3df070
6770e0
4671c0
c27380
807f00
807e00
8ce700
84e380
c4e380
78e380
00e380
00c380
01c700
01c700
01c600
01ce00
019c00
0ff800
ENDCHAR
STARTCHAR notsign
ENCODING 172
SWIDTH 1000 0
DWIDTH 25 0
BBX 23 20 1 0
BITMAP
01e002
07f806
1c3c0e
101e0e
200e0e
600e0c
7f0e1c
1c0e1c
180e1c
380c1c
381c18
381c38
381c38
781c38
787c38
4cbe38
853b30
8539f0
8930f0
70c0f0
ENDCHAR
STARTCHAR hyphen
ENCODING 173
SWIDTH 1040 0
DWIDTH 26 0
BBX 23 29 2 -9
BITMAP
03c002
0ff00c
38f81c
20381c
401c1c
801c18
fe1c18
381c38
381c38
301838
703838
703830
703870
703870
603070
7c3070
e27070
6270e0
6439c0
381f00
000000
0070c0
0071c0
00f1c0
00b1c0
008180
004780
007f00
003c00
ENDCHAR
STARTCHAR registered
ENCODING 174
SWIDTH 840 0
DWIDTH 21 0
BBX 18 30 0 -10
BITMAP
007e00
01ff00
038780
0601c0
0c01c0
0800c0
1fc0c0
0700c0
0701c0
0601c0
0601c0
0e01c0
0e0180
0e0180
1e0380
7c0380
c40380
840380
c82300
706300
008700
0f0700
1f8700
13c700
226600
227e00
363e00
1c1e00
001e00
000c00
ENDCHAR
STARTCHAR macron
ENCODING 175
SWIDTH 840 0
DWIDTH 21 0
BBX 17 30 1 -10
BITMAP
007800
03fe00
060f00
0c0780
080380
100380
1fc180
1fc180
0e0180
0e0380
0e0380
0c0380
0c0380
1c0300
1c0700
7c0700
880700
880700
980600
60c600
030e00
060e00
340e00
4c0e00
8c0c00
8e0c00
dadc00
733c00
003c00
001c00
ENDCHAR
STARTCHAR degree
ENCODING 176
SWIDTH 720 0
DWIDTH 18 0
BBX 19 29 -1 -9
BITMAP
007820
01fe40
038fc0
060780
04f100
0ffc00
0c0e00
038600
0cc600
08e700
0de600
03e600
00c600
01ce00
01ce00
01cc00
01cc00
01dc00
00f800
007000
000000
0c7000
389800
4c9800
8e7800
961800
721000
07f000
07e000
ENDCHAR
STARTCHAR plusminus
ENCODING 177
SWIDTH 1040 0
DWIDTH 26 0
BBX 21 20 3 0
BITMAP
18c070
39e0f8
6be1f8
4ee338
c4e218
80e438
80e438
84ec38
8cc838
cdd830
f9d030
31d070
01f070
01e070
01e070
03c060
03c060
0380e0
0380e0
0380e0
ENDCHAR
STARTCHAR twosuperior
ENCODING 178
SWIDTH 1000 0
DWIDTH 25 0
BBX 22 20 2 0
BITMAP
023804
0e7c0c
1bde1c
318e1c
610e1c
c00e18
838e38
864e38
844e38
c44c38
c79c38
c31c30
e61c70
fc1c70
f8fe70
f09f70
e11960
e139e0
e139e0
c0e0e0
ENDCHAR
STARTCHAR threesuperior
ENCODING 179
SWIDTH 1040 0
DWIDTH 26 0
BBX 22 20 2 0
BITMAP
07c004
1ff00c
38781c
203c18
403c18
401c38
fe1c38
381c38
383830
303830
303830
303870
303870
707070
7c71e0
7276f0
627910
627110
34f120
18e0c0
ENDCHAR
STARTCHAR acute
ENCODING 180
SWIDTH 800 0
DWIDTH 20 0
BBX 16 20 2 0
BITMAP
01f0
0ffc
1c1e
300f
2007
6007
43c7
47e7
c427
4826
486e
6ece
678e
7e0e
780c
700c
701c
601c
601c
e018
ENDCHAR
STARTCHAR mu
ENCODING 181
SWIDTH 800 0
DWIDTH 20 0
BBX 15 20 2 0
BITMAP
0218
0f3c
19fe
30ce
608e
6006
c386
c44e
c84e
c84e
ed8e
678c
630c
7e1c
781c
701c
701c
e018
e018
e038
ENDCHAR
STARTCHAR paragraph
ENCODING 182
SWIDTH 760 0
DWIDTH 19 0
BBX 14 20 3 0
BITMAP
07c0
1ff0
3078
6038
403c
801c
fc1c
701c
701c
7018
7038
6038
6038
e038
e030
f830
e470
c470
c860
3840
ENDCHAR
STARTCHAR periodcentered
ENCODING 183
SWIDTH 880 0
DWIDTH 22 0
BBX 17 20 3 0
BITMAP
3c0e00
ce1f80
8e3380
8e2380
8e4380
7e4380
0cc380
1c8700
1c8700
1d0700
1d0700
1e0700
1a0600
3e0e00
3c0e00
3c0e00
380e00
380c00
780c00
701c00
ENDCHAR
STARTCHAR cedilla
ENCODING 184
SWIDTH 760 0
DWIDTH 19 0
BBX 16 20 3 0
BITMAP
07c1
1ffa
66fc
4638
e600
3f00
0fe0
0e78
0e38
0c38
0c38
1c38
1c38
1c30
1c70
1870
3870
3870
38e0
ffc0
ENDCHAR
STARTCHAR onesuperior
ENCODING 185
SWIDTH 880 0
DWIDTH 22 0
BBX 18 20 3 0
BITMAP
3c0040
4c01c0
8e0180
8e0180
9e0180
7e0380
1c0380
1c0380
1c0380
1c0300
1c0700
380700
380700
380700
38fe00
339e00
3e3100
782100
702200
701c00
ENDCHAR
STARTCHAR masculine
ENCODING 186
SWIDTH 880 0
DWIDTH 22 0
BBX 18 20 3 0
BITMAP
3c00c0
7e01c0
ce01c0
8e01c0
8e01c0
7e0180
0e0180
0e0380
0c0380
1c0380
1c0380
1c0300
1c0700
1c0700
180700
380700
380700
380e00
380e00
fffc00
ENDCHAR
STARTCHAR guillemotright
ENCODING 187
SWIDTH 880 0
DWIDTH 22 0
BBX 20 31 3 0
BITMAP
000010
000030
000070
000070
000070
000060
000060
0000e0
0000e0
0000e0
0000e0
3c00c0
7e01c0
ce01c0
8e01c0
8e01c0
ce0180
7e0180
0e0380
0e0380
0c0380
1c0380
1c0300
1c0700
1c0700
180700
380700
380600
380e00
380e00
fff800
ENDCHAR
STARTCHAR onequarter
ENCODING 188
SWIDTH 760 0
DWIDTH 19 0
BBX 17 20 0 0
BITMAP
070180
1c8180
188380
388380
3f8380
380380
300300
304700
70c700
71c700
736700
722600
642600
683e00
f81e00
f01e00
e00e00
e00c00
c00c00
c01800
ENDCHAR
STARTCHAR onehalf
ENCODING 189
SWIDTH 760 0
DWIDTH 19 0
BBX 19 32 0 0
BITMAP
000020
000060
0000e0
0000e0
0000e0
0000e0
0000c0
0000c0
0001c0
0001c0
0001c0
000180
070180
1c8380
188380
388380
3f0380
380300
300300
304700
70c700
71c700
736700
762600
642600
683e00
f81e00
f01e00
e00e00
e00c00
c00c00
c01800
ENDCHAR
STARTCHAR threequarters
ENCODING 190
SWIDTH 920 0
DWIDTH 23 0
BBX 19 20 3 0
BITMAP
3818e0
cc18c0
8e38c0
8e28c0
9c68c0
7c49c0
1cc9c0
1c8980
1c8980
1d0d80
190d80
1b0f80
3a0f80
3e0f80
3c0700
3c0700
380700
380700
700700
700700
ENDCHAR
STARTCHAR questiondown
ENCODING 191
SWIDTH 920 0
DWIDTH 23 0
BBX 21 31 3 0
BITMAP
000018
000030
000030
000030
000070
000070
000070
000060
000060
000060
0000e0
3818e0
cc18e0
8e38c0
8e28c0
9c68c0
7c48c0
1cc9c0
1c89c0
1d8980
190d80
190d80
3a0d80
3a0f80
3e0f80
3c0780
3c0700
380700
380700
700700
700700
ENDCHAR
STARTCHAR Agrave
ENCODING 192
SWIDTH 800 0
DWIDTH 20 0
BBX 17 20 1 0
BITMAP
007c00
03ff00
070f00
0c0380
080380
180180
1fc180
060180
060380
0e0380
0e0380
0e0300
0c0300
0c0700
7c0700
8c0700
8c0600
980600
f80400
600c00
ENDCHAR
STARTCHAR Aacute
ENCODING 193
SWIDTH 840 0
DWIDTH 21 0
BBX 18 20 1 0
BITMAP
0e0040
1300c0
2301c0
2381c0
2301c0
1f01c0
070180
070180
070380
060380
060380
060300
0e0300
0e0700
3f0700
cd8700
8ce700
9c7e00
783c00
301800
ENDCHAR
STARTCHAR Acircumflex
ENCODING 194
SWIDTH 680 0
DWIDTH 17 0
BBX 14 20 1 0
BITMAP
0f04
190c
119c
111c
3b1c
3e1c
2e18
3018
1e38
3038
6038
e038
e030
e030
c070
e070
e060
71c0
3f80
1e00
ENDCHAR
STARTCHAR Atilde
ENCODING 195
SWIDTH 680 0
DWIDTH 17 0
BBX 13 20 3 0
BITMAP
1c08
3f10
67e0
43e0
c0c0
8000
f000
1e00
0380
0380
0380
0380
0300
0300
0700
3f00
4700
4600
4e00
3800
ENDCHAR
STARTCHAR Adiaeresis
ENCODING 196
SWIDTH 760 0
DWIDTH 19 0
BBX 14 28 3 -8
BITMAP
07c0
1ff0
3078
6038
403c
801c
fc1c
701c
701c
7018
7038
6038
6038
e038
e038
f830
e470
c470
c870
3870
0060
0060
0060
00e0
00e0
00c0
00c0
0080
ENDCHAR
STARTCHAR Aring
ENCODING 197
SWIDTH 760 0
DWIDTH 19 0
BBX 16 20 2 0
BITMAP
03f0
0ffc
3c3e
600f
4007
4387
0fe7
1c37
380e
300e
700e
700e
700e
600c
fc1c
e61c
c21c
c21c
c418
3838
ENDCHAR
STARTCHAR AE
ENCODING 198
SWIDTH 800 0
DWIDTH 20 0
BBX 17 28 1 -8
BITMAP
007c00
03ff00
070f00
0c0380
080380
180180
1fc180
060180
060380
0e0380
0e0380
0e0380
0c0300
0c0700
7c0700
8c0700
8c0700
980600
f80600
600e00
000e00
000e00
000e00
000c00
000c00
001c00
001800
001000
ENDCHAR
STARTCHAR Ccedilla
ENCODING 199
SWIDTH 680 0
DWIDTH 17 0
BBX 13 20 3 0
BITMAP
0780
1fe0
38f0
6070
8030
8038
0030
0030
0070
0070
0070
0060
0060
0060
03e0
04e0
08e0
08c0
08c0
0700
ENDCHAR
STARTCHAR Egrave
ENCODING 200
SWIDTH 760 0
DWIDTH 19 0
BBX 18 21 2 0
BITMAP
0000c0
03e0c0
0ff980
383d80
601f00
400e00
c70e00
8fbe00
9cee00
b88c00
f98c00
ff0c00
701c00
701c00
701c00
f01800
e01800
e01800
e03800
e03800
c03800
ENDCHAR
STARTCHAR Eacute
ENCODING 201
SWIDTH 880 0
DWIDTH 22 0
BBX 18 20 2 0
BITMAP
1c0040
2600c0
4701c0
4701c0
4701c0
3f01c0
070180
0e0180
0ee380
0fe380
0f2380
0e0300
1f0f00
1cf700
1c0700
1c0700
1c0700
380600
380e00
fff800
ENDCHAR
STARTCHAR Ecircumflex
ENCODING 202
SWIDTH 880 0
DWIDTH 22 0
BBX 19 21 3 0
BITMAP
000060
03e060
0ff8e0
1c3dc0
700f80
c00f00
83f600
0ff600
1c3e00
380e00
300e00
700e00
700c00
700c00
701c00
fc1c00
e61c00
c61c00
c61800
441800
383800
ENDCHAR
STARTCHAR Ediaeresis
ENCODING 203
SWIDTH 920 0
DWIDTH 23 0
BBX 18 20 3 0
BITMAP
380380
5c0640
8c0440
8e0440
9c04c0
7c0780
1c0f00
1c3300
1c4300
1c8700
1b0700
3e0700
3c0600
380600
380600
300e00
300e00
700e00
700e00
700c00
ENDCHAR
STARTCHAR Igrave
ENCODING 204
SWIDTH 880 0
DWIDTH 22 0
BBX 21 21 3 0
BITMAP
0001d8
380258
481438
882470
8826e0
9863c0
787180
38f180
38b180
399380
311380
331380
721300
761b00
741b00
681f00
780f00
700f00
700e00
e00e00
e00e00
ENDCHAR
STARTCHAR Iacute
ENCODING 205
SWIDTH 760 0
DWIDTH 19 0
BBX 15 20 3 0
BITMAP
03c0
1ff0
3878
601c
c00c
8c0c
1e0e
310c
610c
721c
7c1c
e01c
e018
e018
e018
e038
e030
e070
71e0
1f80
ENDCHAR
STARTCHAR Icircumflex
ENCODING 206
SWIDTH 720 0
DWIDTH 18 0
BBX 15 20 1 0
BITMAP
0386
0fee
187c
203c
2038
3078
0f98
0e38
7138
6138
e130
e230
fc30
e070
c070
c060
c060
e0e0
71c0
1f00
ENDCHAR
STARTCHAR Idiaeresis
ENCODING 207
SWIDTH 800 0
DWIDTH 20 0
BBX 15 20 2 0
BITMAP
001e
003e
007e
006e
384e
7ccc
e48c
c11c
c21c
7c1c
381c
0018
0038
0038
0038
0038
0030
0030
0070
0070
ENDCHAR
STARTCHAR ETH
ENCODING 208
SWIDTH 720 0
DWIDTH 18 0
BBX 16 19 1 0
BITMAP
0f07
1b87
318e
319e
3b3c
3ff0
0fc0
0000
0000
0000
0000
0000
3c1c
6e1c
c638
c678
ecf0
ffc0
3f00
ENDCHAR
STARTCHAR Ntilde
ENCODING 209
SWIDTH 0 0
DWIDTH 0 0
BBX 13 7 -8 23
BITMAP
3818
4c18
8430
8470
c8e0
ff80
3e00
ENDCHAR
STARTCHAR Ograve
ENCODING 210
SWIDTH 560 0
DWIDTH 14 0
BBX 9 20 3 0
BITMAP
1e00
7f00
c780
8380
0380
0180
0380
0380
0380
0380
0300
0700
0700
0700
0700
0600
0600
0e00
0e00
0e00
ENDCHAR
STARTCHAR Oacute
ENCODING 211
SWIDTH 560 0
DWIDTH 14 0
BBX 17 31 -5 0
BITMAP
1e0000
3f0000
630000
c30000
c30000
7e0000
380000
000000
000000
000000
000000
001e00
007f00
00c780
008380
000380
000180
000380
000380
000380
000380
000300
000700
000700
000700
000700
000600
000600
000e00
000e00
000e00
ENDCHAR
STARTCHAR Ocircumflex
ENCODING 212
SWIDTH 0 0
DWIDTH 0 0
BBX 14 8 -13 23
BITMAP
03e0
0ff0
3c38
600c
4004
ffc4
007c
0004
ENDCHAR
STARTCHAR Otilde
ENCODING 213
SWIDTH 0 0
DWIDTH 0 0
BBX 15 10 -15 22
BITMAP
0006
0006
07ee
1ffe
383e
600e
4004
ffc6
803e
0006
ENDCHAR
STARTCHAR Odiaeresis
ENCODING 214
SWIDTH 0 0
DWIDTH 0 0
BBX 17 12 -14 22
BITMAP
000700
000f80
001880
03f080
1ff980
3c1f00
600e00
400600
ffe200
007e00
000e00
000200
ENDCHAR
STARTCHAR multiply
ENCODING 215
SWIDTH 0 0
DWIDTH 0 0
BBX 15 11 -13 22
BITMAP
0066
00e6
00c6
07ee
1ffe
3c7e
601c
c00c
ffc4
807c
0004
ENDCHAR
STARTCHAR Ooblique
ENCODING 216
SWIDTH 0 0
DWIDTH 0 0
BBX 7 8 -12 -9
BITMAP
3c
4e
8e
8e
8e
7e
1c
1c
ENDCHAR
STARTCHAR Ugrave
ENCODING 217
SWIDTH 0 0
DWIDTH 0 0
BBX 10 9 -15 -10
BITMAP
38c0
c8c0
8cc0
88c0
99c0
f9c0
19c0
1f80
0700
ENDCHAR
STARTCHAR Uacute
ENCODING 218
SWIDTH 0 0
DWIDTH 0 0
BBX 4 4 -9 -7
BITMAP
60
f0
f0
60
ENDCHAR
STARTCHAR Ucircumflex
ENCODING 219
SWIDTH 440 0
DWIDTH 11 0
BBX 0 0 0 0
BITMAP
ENDCHAR
STARTCHAR Udiaeresis
ENCODING 220
SWIDTH 440 0
DWIDTH 11 0
BBX 9 5 1 -5
BITMAP
ff80
ff80
ff80
8080
8080
ENDCHAR
STARTCHAR ssharp
ENCODING 223
SWIDTH 880 0
DWIDTH 22 0
BBX 20 26 0 -2
BITMAP
000600
000e00
000e00
1fff80
03ffe0
03ccf0
038c70
039c70
039c70
039cf0
0798e0
0719c0
07ff00
07ff00
073fc0
0f39e0
0f30f0
0e30f0
0e70f0
0e71f0
0e71e0
1e61c0
1e6780
fffc00
00e000
00e000
ENDCHAR
STARTCHAR agrave
ENCODING 224
SWIDTH 320 0
DWIDTH 8 0
BBX 7 20 0 0
BITMAP
06
0c
1c
1c
1c
1c
1c
38
38
38
38
38
30
70
78
44
84
84
c8
70
ENDCHAR
STARTCHAR aacute
ENCODING 225
SWIDTH 720 0
DWIDTH 18 0
BBX 17 20 0 0
BITMAP
070180
0e0380
1e0780
1e0780
1e0780
1e0780
1e0780
3c0f00
3c0f00
3c0f00
3c0f00
3c0f00
380e00
781e00
7c1f00
661980
c63180
c63180
ec3b00
781e00
ENDCHAR
STARTCHAR acircumflex
ENCODING 226
SWIDTH 680 0
DWIDTH 17 0
BBX 14 32 5 0
BITMAP
0f00
3f84
67f8
c1f0
7060
1c00
0700
0180
0380
0380
0380
0380
0300
0300
0700
0700
0700
0700
0600
0600
0e00
0e00
0e00
0e00
0c00
1c00
1e00
1100
2100
2100
3200
1c00
ENDCHAR
STARTCHAR atilde
ENCODING 227
SWIDTH 600 0
DWIDTH 15 0
BBX 9 32 5 0
BITMAP
1e00
7f00
4380
8380
9380
8b80
8b80
5380
2700
0700
0700
0700
0700
0600
0e00
0e00
0e00
0e00
0e00
1c00
1c00
1c00
1c00
1c00
1800
3800
3c00
6200
4200
4200
2400
1800
ENDCHAR
STARTCHAR adiaeresis
ENCODING 228
SWIDTH 680 0
DWIDTH 17 0
BBX 10 34 6 0
BITMAP
c000
6080
63c0
64c0
c8c0
c9c0
c9c0
c9c0
c9c0
d180
6180
0380
0380
0380
0380
0300
0700
0700
0700
0700
0600
0600
0e00
0e00
0e00
0e00
0c00
1c00
1e00
1100
2100
2100
2200
1c00
ENDCHAR
STARTCHAR aring
ENCODING 229
SWIDTH 560 0
DWIDTH 14 0
BBX 9 28 3 -8
BITMAP
1e00
7f00
c780
8380
0180
0180
0380
0380
0380
0380
0300
0300
0700
0700
0700
0600
0600
0e00
0e00
0e00
0e00
0c00
0c00
1c00
1c00
1c00
1c00
1800
ENDCHAR
STARTCHAR ae
ENCODING 230
SWIDTH 840 0
DWIDTH 21 0
BBX 16 26 2 -6
BITMAP
0618
0f3e
31cf
6087
4007
4007
8807
9c07
8c07
4c06
780e
000e
000e
000e
000e
001c
001c
001c
001c
001c
0018
0038
0038
0038
0038
0030
ENDCHAR
STARTCHAR ccedilla
ENCODING 231
SWIDTH 0 0
DWIDTH 0 0
BBX 14 13 -12 23
BITMAP
001c
0018
0018
0038
0030
3fe0
7f80
4020
80f0
b8f0
fe30
67e0
21c0
ENDCHAR
STARTCHAR egrave
ENCODING 232
SWIDTH 0 0
DWIDTH 0 0
BBX 3 6 -1 35
BITMAP
e0
e0
e0
c0
c0
c0
ENDCHAR
STARTCHAR eacute
ENCODING 233
SWIDTH 0 0
DWIDTH 0 0
BBX 11 10 -2 35
BITMAP
0060
3060
58c0
48c0
7980
3980
1300
3600
f800
c000
ENDCHAR
STARTCHAR ecircumflex
ENCODING 234
SWIDTH 0 0
DWIDTH 0 0
BBX 13 9 -6 36
BITMAP
0018
3118
7b98
4cb0
c0b0
80e0
99c0
5980
7300
ENDCHAR
STARTCHAR ediaeresis
ENCODING 235
SWIDTH 0 0
DWIDTH 0 0
BBX 8 9 -4 35
BITMAP
0c
1c
18
ff
ff
ff
18
38
30
ENDCHAR
STARTCHAR igrave
ENCODING 236
SWIDTH 0 0
DWIDTH 0 0
BBX 9 10 0 32
BITMAP
0080
0180
0180
0700
3e00
7800
4800
8800
9000
6000
ENDCHAR
STARTCHAR iacute
ENCODING 237
SWIDTH 0 0
DWIDTH 0 0
BBX 7 8 -7 22
BITMAP
1c
3e
66
c2
c6
c6
7c
38
ENDCHAR
STARTCHAR icircumflex
ENCODING 238
SWIDTH 0 0
DWIDTH 0 0
BBX 10 12 -6 23
BITMAP
07c0
0f80
1c00
1800
1800
0e00
3c00
6000
c000
c000
f800
7000
ENDCHAR
STARTCHAR idiaeresis
ENCODING 239
SWIDTH 840 0
DWIDTH 21 0
BBX 18 17 1 0
BITMAP
01fc00
070700
180180
300080
60e0c0
43f040
43f840
87f840
87f840
87f080
83f080
81c180
c00300
600600
700c00
383800
07e000
ENDCHAR
STARTCHAR eth
ENCODING 240
SWIDTH 800 0
DWIDTH 20 0
BBX 16 14 1 0
BITMAP
01f0
07f8
0ffc
1e1e
380f
7007
6007
e007
e006
e00e
f01c
7838
3ff0
0fc0
ENDCHAR
STARTCHAR ntilde
ENCODING 241
SWIDTH 800 0
DWIDTH 20 0
BBX 16 15 1 -1
BITMAP
01e0
07fc
1ffc
3e1e
7006
6007
61c3
c3e3
c7e3
c7e6
e1c6
61cc
7f18
1e30
0060
ENDCHAR
STARTCHAR ograve
ENCODING 242
SWIDTH 1120 0
DWIDTH 28 0
BBX 23 22 2 0
BITMAP
180000
3c0000
1c0000
180000
180000
380000
380000
380000
381c3c
387f7e
30fffe
31e3ce
718186
718086
731c86
733c84
633c8c
61fd0c
e0f118
600030
7fffe0
3fff80
ENDCHAR
STARTCHAR oacute
ENCODING 243
SWIDTH 1000 0
DWIDTH 25 0
BBX 21 14 1 0
BITMAP
01e0e0
07f3f0
0ffbf0
1c1e38
380e38
700c18
600c18
c00c18
c79830
cf9830
cf9860
67b0e0
7f61c0
1c6180
ENDCHAR
STARTCHAR ocircumflex
ENCODING 244
SWIDTH 1000 0
DWIDTH 25 0
BBX 22 22 1 0
BITMAP
000008
00001c
000018
000018
000030
000070
0001c0
000f80
007c00
03e000
0f0000
1c0700
381f80
701f80
f03780
e03700
e03000
e03800
f01c00
fc3f80
7fffe0
1f80e0
ENDCHAR
STARTCHAR otilde
ENCODING 245
SWIDTH 1040 0
DWIDTH 26 0
BBX 23 22 1 0
BITMAP
000006
000006
000e0e
003f0e
00330c
00731c
007378
003fe0
003f80
00f800
03c000
0703c0
1e07e0
380de0
700de0
e00dc0
e00c00
e00e00
e00700
700f80
7fffe0
1f00c0
ENDCHAR
STARTCHAR odiaeresis
ENCODING 246
SWIDTH 840 0
DWIDTH 21 0
BBX 15 22 3 0
BITMAP
6000
7000
7000
3800
1800
1800
1800
1000
13e0
3ff0
3c38
601c
000e
100e
780e
780e
f81c
601c
6038
70f0
3fc0
0f80
ENDCHAR
STARTCHAR division
ENCODING 247
SWIDTH 1040 0
DWIDTH 26 0
BBX 23 22 1 0
BITMAP
000040
000070
000078
00007c
00001c
00000e
00000e
000006
038306
0fcf86
1fff86
38f9c4
7020c4
6020cc
c000cc
c000d8
c08190
c3c1b0
e7c160
77c3c0
3f8700
1e0200
ENDCHAR
STARTCHAR oslash
ENCODING 248
SWIDTH 1000 0
DWIDTH 25 0
BBX 23 22 1 0
BITMAP
00000c
000006
00000e
00000e
00000e
00000e
00001c
00001c
000038
07e070
1fffe0
3fffe0
780f80
600000
e00000
c00380
c707c0
cf87c0
efc3c0
78f180
383f00
181e00
ENDCHAR
STARTCHAR ugrave
ENCODING 249
SWIDTH 800 0
DWIDTH 20 0
BBX 19 23 1 0
BITMAP
0000e0
0000e0
0000e0
0001c0
01f1c0
07ff80
0f0e00
1c0000
1c0000
0e0200
0ffe00
07fe00
1e0000
780000
603800
c07c00
c07c00
c03c00
e01800
601800
787000
3fe000
0f8000
ENDCHAR
STARTCHAR uacute
ENCODING 250
SWIDTH 920 0
DWIDTH 23 0
BBX 20 20 2 0
BITMAP
001f30
001f30
003e70
003e70
1c6670
3c6e70
644e60
c0ce60
c18ce0
c30ce0
7e0ce0
381ce0
001cc0
001cc0
0018c0
0019c0
0019c0
0039c0
0039c0
003980
ENDCHAR
STARTCHAR ucircumflex
ENCODING 251
SWIDTH 1600 0
DWIDTH 40 0
BBX 36 18 2 0
BITMAP
01f0000000
07fc000000
1e0c000000
3804000000
3000000000
7000000000
6000000000
6000000000
e001042010
c0010c7030
c0039e7030
c003f6d860
c006e398c0
e00c430f80
601c000700
7078000000
3fe0000000
0780000000
ENDCHAR
STARTCHAR udiaeresis
ENCODING 252
SWIDTH 0 0
DWIDTH 0 0
BBX 6 8 -13 -19
BITMAP
38
4c
8c
8c
8c
7c
1c
1c
ENDCHAR
STARTCHAR yacute
ENCODING 253
SWIDTH 0 0
DWIDTH 0 0
BBX 10 9 -17 -20
BITMAP
78c0
88c0
8cc0
99c0
f9c0
19c0
1d80
0f80
0700
ENDCHAR
STARTCHAR thorn
ENCODING 254
SWIDTH 0 0
DWIDTH 0 0
BBX 4 4 -11 -17
BITMAP
60
f0
f0
60
ENDCHAR
STARTCHAR C000400
ENCODING 256
SWIDTH 320 0
DWIDTH 8 0
BBX 0 0 0 0
BITMAP
ENDCHAR
STARTCHAR C000401
ENCODING 257
SWIDTH 320 0
DWIDTH 8 0
BBX 0 0 0 0
BITMAP
ENDCHAR
STARTCHAR C000430
ENCODING 280
SWIDTH 320 0
DWIDTH 8 0
BBX 0 0 0 0
BITMAP
ENDCHAR
STARTCHAR C001103
ENCODING 579
SWIDTH 640 0
DWIDTH 16 0
BBX 16 1 0 7
BITMAP
ffff
ENDCHAR
STARTCHAR C001104
ENCODING 580
SWIDTH 1120 0
DWIDTH 28 0
BBX 28 1 0 7
BITMAP
fffffff0
ENDCHAR
STARTCHAR C001107
ENCODING 583
SWIDTH 440 0
DWIDTH 11 0
BBX 4 7 7 15
BITMAP
10
20
40
c0
e0
e0
60
ENDCHAR
STARTCHAR C001110
ENCODING 584
SWIDTH 440 0
DWIDTH 11 0
BBX 4 7 7 15
BITMAP
60
70
70
30
20
40
80
ENDCHAR
STARTCHAR C001113
ENCODING 587
SWIDTH 720 0
DWIDTH 18 0
BBX 12 7 6 15
BITMAP
1030
2040
4080
c080
e1c0
e1c0
e1c0
ENDCHAR
STARTCHAR C001114
ENCODING 588
SWIDTH 720 0
DWIDTH 18 0
BBX 12 7 6 15
BITMAP
7070
7070
7070
3030
2020
4040
8180
ENDCHAR
STARTCHAR C001115
ENCODING 589
SWIDTH 720 0
DWIDTH 18 0
BBX 11 7 1 -4
BITMAP
70e0
70e0
70e0
3060
2040
4080
8100
ENDCHAR
STARTCHAR C001121
ENCODING 593
SWIDTH 440 0
DWIDTH 11 0
BBX 8 8 3 7
BITMAP
3c
7e
ff
ff
ff
ff
7e
3c
ENDCHAR
STARTCHAR C001122
ENCODING 594
SWIDTH 1120 0
DWIDTH 28 0
BBX 20 4 4 -1
BITMAP
606060
f0f0f0
f0f0f0
606060
ENDCHAR
ENDFONT
